<?xml version="1.0" encoding="utf-8"?><svg width="290" height="207" fill="none" xmlns="http://www.w3.org/2000/svg" viewBox="0 0 290 207"><path d="M168.463-48.742l-15.524 201.907-108.988-63.17L168.463-48.742z" fill="#FD0"/><path d="M168.463-48.742L153.082 153.95l84.123-39.01-68.742-163.682z" fill="#ECB300"/><path d="M43.38 91.125L168.576-49.499M237.638 116.104L168.576-49.499" stroke="#000" stroke-width="2.428"/><path d="M45.64 31.988l115.194 14.083-70.483 70.815L45.64 31.988zM90.878 117.999l62.468 35.854 48.663-22.208-67.821 69.584-43.31-83.23z" fill="#fff"/><path d="M45.64 31.988L160.834 46.07l-56.329-23.078-58.865 8.995z" fill="#F2F2F2"/><path d="M161.744 46.327L271.746 60.05l-68.61 70.612-41.392-84.335z" fill="#fff"/><path d="M161.744 46.327L271.746 60.05l-65.921-23.36-44.081 9.637z" fill="#F2F2F2"/><path d="M44.82 32.02l228.201 27.732M204.736 36.697l68.285 23.055M204.736 36.697l-43.124 8.854M104.169 23.321l57.443 22.23M90.838 117.187l70.774-71.636M202.706 130.619l-41.094-85.067M44.82 32.02l59.113-9.079M45.742 32.657l88.735 169.585M272.009 60.11L134.665 200.868M44.872 90.884L152.507 153.6M236.302 115.356l-82.558 38.368M153.088 154.714l15.791-204.906" stroke="#000" stroke-width="2.428"/></svg>