<?xml version="1.0" encoding="utf-8"?><svg width="40" height="40" fill="none" xmlns="http://www.w3.org/2000/svg" viewBox="0 0 40 40"><path d="M30.423 17.917l-.03-.074-2.826-7.378a.737.737 0 00-.73-.463.757.757 0 00-.426.16.757.757 0 00-.25.38l-1.91 5.84h-7.728l-1.909-5.84a.742.742 0 00-.25-.382.757.757 0 00-.866-.046.743.743 0 00-.29.35l-2.833 7.374-.028.075a5.249 5.249 0 001.74 6.067l.01.007.027.019 4.306 3.224 2.13 1.613 1.298.98a.873.873 0 001.055 0l1.298-.98 2.13-1.613 4.332-3.244.011-.009a5.252 5.252 0 001.739-6.06z" fill="#FD0"/></svg>