<?xml version="1.0" encoding="utf-8"?><svg width="40" height="40" fill="none" xmlns="http://www.w3.org/2000/svg" viewBox="0 0 40 40"><path fill-rule="evenodd" clip-rule="evenodd" d="M20 8c-3.259 0-3.667.014-4.947.072-2.178.1-3.873.754-5.048 1.928H10v.005c-1.173 1.175-1.827 2.868-1.927 5.047C8.014 16.333 8 16.741 8 20c0 3.259.014 3.668.072 4.948.1 2.178.754 3.873 1.928 5.048V30h.004c1.175 1.174 2.869 1.828 5.048 1.928 1.281.058 1.689.072 4.948.072 3.259 0 3.668-.014 4.948-.072 2.176-.1 3.871-.754 5.047-1.928H30v-.005c1.174-1.175 1.829-2.868 1.927-5.047.059-1.28.073-1.689.073-4.948 0-3.259-.014-3.667-.072-4.947-.098-2.178-.753-3.873-1.928-5.049V10h-.005c-1.174-1.172-2.868-1.827-5.046-1.927C23.668 8.014 23.259 8 20 8zm4.965 5.595a1.44 1.44 0 112.881.001 1.44 1.44 0 01-2.881 0zM20.005 16A4.002 4.002 0 0016 20c0 2.207 1.791 4 4.004 4A3.998 3.998 0 0024 20c0-2.21-1.79-4-3.996-4zm0-2A6.002 6.002 0 0014 20c0 3.313 2.688 6 6.004 6A5.998 5.998 0 0026 20c0-3.313-2.683-6-5.996-6z" fill="#FD0"/></svg>