<?xml version="1.0" encoding="utf-8"?><svg width="40" height="40" fill="none" xmlns="http://www.w3.org/2000/svg" viewBox="0 0 40 40"><path d="M34.84 26.718a1.974 1.974 0 00-.1-.19c-.521-.913-1.516-2.033-2.984-3.361l-.031-.03-.016-.016-.015-.015h-.016c-.666-.619-1.088-1.034-1.265-1.247-.323-.406-.396-.817-.22-1.233.126-.314.595-.978 1.407-1.992.427-.537.765-.968 1.015-1.292 1.801-2.333 2.582-3.823 2.343-4.472l-.093-.152c-.063-.09-.224-.175-.484-.25-.26-.077-.594-.09-1-.039l-4.498.03a.6.6 0 00-.313.008l-.203.046-.079.038-.062.046a.686.686 0 00-.171.16 1.038 1.038 0 00-.156.266 24.557 24.557 0 01-1.672 3.422 32.25 32.25 0 01-1.062 1.635c-.323.461-.594.8-.812 1.019a5.626 5.626 0 01-.594.524c-.177.132-.312.188-.406.168-.094-.02-.182-.04-.266-.061a1.023 1.023 0 01-.35-.373 1.637 1.637 0 01-.18-.593 6.345 6.345 0 01-.055-.616c-.005-.172-.003-.416.008-.73.01-.315.015-.527.015-.639 0-.385.008-.803.024-1.255.015-.451.028-.808.039-1.072.01-.264.015-.542.015-.836a3.42 3.42 0 00-.054-.692 2.324 2.324 0 00-.164-.487.826.826 0 00-.32-.365 1.832 1.832 0 00-.523-.206c-.552-.121-1.255-.187-2.11-.197-1.936-.02-3.18.101-3.732.365a2.096 2.096 0 00-.594.456c-.187.223-.213.345-.078.365.625.091 1.067.31 1.327.654l.094.182c.073.132.146.366.22.7.072.335.119.705.14 1.11.052.74.052 1.374 0 1.901-.053.528-.102.938-.149 1.232a2.418 2.418 0 01-.21.715 2.99 2.99 0 01-.188.335.266.266 0 01-.078.076c-.136.05-.276.076-.422.076-.146 0-.323-.071-.531-.213a3.707 3.707 0 01-.648-.586 7.844 7.844 0 01-.758-1.041 18.054 18.054 0 01-.874-1.582l-.25-.441a37.68 37.68 0 01-.64-1.24c-.272-.543-.511-1.067-.72-1.574a1.006 1.006 0 00-.374-.487l-.078-.046a1.077 1.077 0 00-.25-.129 1.69 1.69 0 00-.36-.099l-4.28.03c-.436 0-.733.097-.89.29l-.062.09a.481.481 0 00-.047.244c0 .112.031.249.094.41A49.633 49.633 0 007.132 17.6c.734 1.328 1.372 2.398 1.913 3.209a37.872 37.872 0 001.656 2.296c.562.72.935 1.182 1.117 1.384a10 10 0 00.43.457l.39.365c.25.243.617.535 1.101.874.484.34 1.02.675 1.609 1.004.588.33 1.273.598 2.054.806a7.285 7.285 0 002.28.251h1.797c.364-.03.64-.142.828-.334l.062-.076a.994.994 0 00.117-.282c.037-.126.055-.266.055-.418-.011-.436.023-.829.101-1.178.078-.35.167-.614.266-.791.099-.178.211-.327.335-.449.125-.121.214-.195.267-.22a1.03 1.03 0 01.124-.054c.25-.08.544-.002.883.236.338.239.656.533.953.883.297.35.653.742 1.07 1.178.416.436.78.76 1.093.974l.312.182c.209.122.48.234.813.335.332.101.624.127.874.076l3.999-.06c.395 0 .703-.065.921-.191.219-.127.349-.266.39-.418.043-.152.045-.325.009-.518a1.877 1.877 0 00-.11-.403z" fill="#fff"/></svg>