<?xml version="1.0" encoding="utf-8"?><svg viewBox="0 0 290 207" xmlns="http://www.w3.org/2000/svg" xmlns:xlink="http://www.w3.org/1999/xlink"><style>:root>svg{display:none}:root>svg:target{display:block}</style><svg fill="none" viewBox="0 0 290 207" id="about-icon-1" xmlns="http://www.w3.org/2000/svg"><path d="M168.463-48.742l-15.524 201.907-108.988-63.17L168.463-48.742z" fill="#FD0"/><path d="M168.463-48.742L153.082 153.95l84.123-39.01-68.742-163.682z" fill="#ECB300"/><path d="M43.38 91.125L168.576-49.499M237.638 116.104L168.576-49.499" stroke="#000" stroke-width="2.428"/><path d="M45.64 31.988l115.194 14.083-70.483 70.815L45.64 31.988zM90.878 117.999l62.468 35.854 48.663-22.208-67.821 69.584-43.31-83.23z" fill="#fff"/><path d="M45.64 31.988L160.834 46.07l-56.329-23.078-58.865 8.995z" fill="#F2F2F2"/><path d="M161.744 46.327L271.746 60.05l-68.61 70.612-41.392-84.335z" fill="#fff"/><path d="M161.744 46.327L271.746 60.05l-65.921-23.36-44.081 9.637z" fill="#F2F2F2"/><path d="M44.82 32.02l228.201 27.732M204.736 36.697l68.285 23.055M204.736 36.697l-43.124 8.854M104.169 23.321l57.443 22.23M90.838 117.187l70.774-71.636M202.706 130.619l-41.094-85.067M44.82 32.02l59.113-9.079M45.742 32.657l88.735 169.585M272.009 60.11L134.665 200.868M44.872 90.884L152.507 153.6M236.302 115.356l-82.558 38.368M153.088 154.714l15.791-204.906" stroke="#000" stroke-width="2.428"/></svg><svg fill="none" viewBox="0 0 40 40" id="social-1" xmlns="http://www.w3.org/2000/svg"><path d="M30.423 17.917l-.03-.074-2.826-7.378a.737.737 0 00-.73-.463.757.757 0 00-.426.16.757.757 0 00-.25.38l-1.91 5.84h-7.728l-1.909-5.84a.742.742 0 00-.25-.382.757.757 0 00-.866-.046.743.743 0 00-.29.35l-2.833 7.374-.028.075a5.249 5.249 0 001.74 6.067l.01.007.027.019 4.306 3.224 2.13 1.613 1.298.98a.873.873 0 001.055 0l1.298-.98 2.13-1.613 4.332-3.244.011-.009a5.252 5.252 0 001.739-6.06z" fill="#fff"/></svg><svg fill="none" viewBox="0 0 40 40" id="social-1-yellow" xmlns="http://www.w3.org/2000/svg"><path d="M30.423 17.917l-.03-.074-2.826-7.378a.737.737 0 00-.73-.463.757.757 0 00-.426.16.757.757 0 00-.25.38l-1.91 5.84h-7.728l-1.909-5.84a.742.742 0 00-.25-.382.757.757 0 00-.866-.046.743.743 0 00-.29.35l-2.833 7.374-.028.075a5.249 5.249 0 001.74 6.067l.01.007.027.019 4.306 3.224 2.13 1.613 1.298.98a.873.873 0 001.055 0l1.298-.98 2.13-1.613 4.332-3.244.011-.009a5.252 5.252 0 001.739-6.06z" fill="#FD0"/></svg><svg fill="none" viewBox="0 0 40 40" id="social-insta" xmlns="http://www.w3.org/2000/svg"><path fill-rule="evenodd" clip-rule="evenodd" d="M20 8c-3.259 0-3.667.014-4.947.072-2.178.1-3.873.754-5.048 1.928H10v.005c-1.173 1.175-1.827 2.868-1.927 5.047C8.014 16.333 8 16.741 8 20c0 3.259.014 3.668.072 4.948.1 2.178.754 3.873 1.928 5.048V30h.004c1.175 1.174 2.869 1.828 5.048 1.928 1.281.058 1.689.072 4.948.072 3.259 0 3.668-.014 4.948-.072 2.176-.1 3.871-.754 5.047-1.928H30v-.005c1.174-1.175 1.829-2.868 1.927-5.047.059-1.28.073-1.689.073-4.948 0-3.259-.014-3.667-.072-4.947-.098-2.178-.753-3.873-1.928-5.049V10h-.005c-1.174-1.172-2.868-1.827-5.046-1.927C23.668 8.014 23.259 8 20 8zm4.965 5.595a1.44 1.44 0 112.881.001 1.44 1.44 0 01-2.881 0zM20.005 16A4.002 4.002 0 0016 20c0 2.207 1.791 4 4.004 4A3.998 3.998 0 0024 20c0-2.21-1.79-4-3.996-4zm0-2A6.002 6.002 0 0014 20c0 3.313 2.688 6 6.004 6A5.998 5.998 0 0026 20c0-3.313-2.683-6-5.996-6z" fill="#fff"/></svg><svg fill="none" viewBox="0 0 40 40" id="social-insta-yellow" xmlns="http://www.w3.org/2000/svg"><path fill-rule="evenodd" clip-rule="evenodd" d="M20 8c-3.259 0-3.667.014-4.947.072-2.178.1-3.873.754-5.048 1.928H10v.005c-1.173 1.175-1.827 2.868-1.927 5.047C8.014 16.333 8 16.741 8 20c0 3.259.014 3.668.072 4.948.1 2.178.754 3.873 1.928 5.048V30h.004c1.175 1.174 2.869 1.828 5.048 1.928 1.281.058 1.689.072 4.948.072 3.259 0 3.668-.014 4.948-.072 2.176-.1 3.871-.754 5.047-1.928H30v-.005c1.174-1.175 1.829-2.868 1.927-5.047.059-1.28.073-1.689.073-4.948 0-3.259-.014-3.667-.072-4.947-.098-2.178-.753-3.873-1.928-5.049V10h-.005c-1.174-1.172-2.868-1.827-5.046-1.927C23.668 8.014 23.259 8 20 8zm4.965 5.595a1.44 1.44 0 112.881.001 1.44 1.44 0 01-2.881 0zM20.005 16A4.002 4.002 0 0016 20c0 2.207 1.791 4 4.004 4A3.998 3.998 0 0024 20c0-2.21-1.79-4-3.996-4zm0-2A6.002 6.002 0 0014 20c0 3.313 2.688 6 6.004 6A5.998 5.998 0 0026 20c0-3.313-2.683-6-5.996-6z" fill="#FD0"/></svg><svg fill="none" viewBox="0 0 40 40" id="social-vk" xmlns="http://www.w3.org/2000/svg"><path d="M34.84 26.718a1.974 1.974 0 00-.1-.19c-.521-.913-1.516-2.033-2.984-3.361l-.031-.03-.016-.016-.015-.015h-.016c-.666-.619-1.088-1.034-1.265-1.247-.323-.406-.396-.817-.22-1.233.126-.314.595-.978 1.407-1.992.427-.537.765-.968 1.015-1.292 1.801-2.333 2.582-3.823 2.343-4.472l-.093-.152c-.063-.09-.224-.175-.484-.25-.26-.077-.594-.09-1-.039l-4.498.03a.6.6 0 00-.313.008l-.203.046-.079.038-.062.046a.686.686 0 00-.171.16 1.038 1.038 0 00-.156.266 24.557 24.557 0 01-1.672 3.422 32.25 32.25 0 01-1.062 1.635c-.323.461-.594.8-.812 1.019a5.626 5.626 0 01-.594.524c-.177.132-.312.188-.406.168-.094-.02-.182-.04-.266-.061a1.023 1.023 0 01-.35-.373 1.637 1.637 0 01-.18-.593 6.345 6.345 0 01-.055-.616c-.005-.172-.003-.416.008-.73.01-.315.015-.527.015-.639 0-.385.008-.803.024-1.255.015-.451.028-.808.039-1.072.01-.264.015-.542.015-.836a3.42 3.42 0 00-.054-.692 2.324 2.324 0 00-.164-.487.826.826 0 00-.32-.365 1.832 1.832 0 00-.523-.206c-.552-.121-1.255-.187-2.11-.197-1.936-.02-3.18.101-3.732.365a2.096 2.096 0 00-.594.456c-.187.223-.213.345-.078.365.625.091 1.067.31 1.327.654l.094.182c.073.132.146.366.22.7.072.335.119.705.14 1.11.052.74.052 1.374 0 1.901-.053.528-.102.938-.149 1.232a2.418 2.418 0 01-.21.715 2.99 2.99 0 01-.188.335.266.266 0 01-.078.076c-.136.05-.276.076-.422.076-.146 0-.323-.071-.531-.213a3.707 3.707 0 01-.648-.586 7.844 7.844 0 01-.758-1.041 18.054 18.054 0 01-.874-1.582l-.25-.441a37.68 37.68 0 01-.64-1.24c-.272-.543-.511-1.067-.72-1.574a1.006 1.006 0 00-.374-.487l-.078-.046a1.077 1.077 0 00-.25-.129 1.69 1.69 0 00-.36-.099l-4.28.03c-.436 0-.733.097-.89.29l-.062.09a.481.481 0 00-.047.244c0 .112.031.249.094.41A49.633 49.633 0 007.132 17.6c.734 1.328 1.372 2.398 1.913 3.209a37.872 37.872 0 001.656 2.296c.562.72.935 1.182 1.117 1.384a10 10 0 00.43.457l.39.365c.25.243.617.535 1.101.874.484.34 1.02.675 1.609 1.004.588.33 1.273.598 2.054.806a7.285 7.285 0 002.28.251h1.797c.364-.03.64-.142.828-.334l.062-.076a.994.994 0 00.117-.282c.037-.126.055-.266.055-.418-.011-.436.023-.829.101-1.178.078-.35.167-.614.266-.791.099-.178.211-.327.335-.449.125-.121.214-.195.267-.22a1.03 1.03 0 01.124-.054c.25-.08.544-.002.883.236.338.239.656.533.953.883.297.35.653.742 1.07 1.178.416.436.78.76 1.093.974l.312.182c.209.122.48.234.813.335.332.101.624.127.874.076l3.999-.06c.395 0 .703-.065.921-.191.219-.127.349-.266.39-.418.043-.152.045-.325.009-.518a1.877 1.877 0 00-.11-.403z" fill="#fff"/></svg><svg fill="none" viewBox="0 0 40 40" id="social-vk-yellow" xmlns="http://www.w3.org/2000/svg"><path d="M34.84 26.718a1.974 1.974 0 00-.1-.19c-.521-.913-1.516-2.033-2.984-3.361l-.031-.03-.016-.016-.015-.015h-.016c-.666-.619-1.088-1.034-1.265-1.247-.323-.406-.396-.817-.22-1.233.126-.314.595-.978 1.407-1.992.427-.537.765-.968 1.015-1.292 1.801-2.333 2.582-3.823 2.343-4.472l-.093-.152c-.063-.09-.224-.175-.484-.25-.26-.077-.594-.09-1-.039l-4.498.03a.6.6 0 00-.313.008l-.203.046-.079.038-.062.046a.686.686 0 00-.171.16 1.038 1.038 0 00-.156.266 24.557 24.557 0 01-1.672 3.422 32.25 32.25 0 01-1.062 1.635c-.323.461-.594.8-.812 1.019a5.626 5.626 0 01-.594.524c-.177.132-.312.188-.406.168-.094-.02-.182-.04-.266-.061a1.023 1.023 0 01-.35-.373 1.637 1.637 0 01-.18-.593 6.345 6.345 0 01-.055-.616c-.005-.172-.003-.416.008-.73.01-.315.015-.527.015-.639 0-.385.008-.803.024-1.255.015-.451.028-.808.039-1.072.01-.264.015-.542.015-.836a3.42 3.42 0 00-.054-.692 2.324 2.324 0 00-.164-.487.826.826 0 00-.32-.365 1.832 1.832 0 00-.523-.206c-.552-.121-1.255-.187-2.11-.197-1.936-.02-3.18.101-3.732.365a2.096 2.096 0 00-.594.456c-.187.223-.213.345-.078.365.625.091 1.067.31 1.327.654l.094.182c.073.132.146.366.22.7.072.335.119.705.14 1.11.052.74.052 1.374 0 1.901-.053.528-.102.938-.149 1.232a2.418 2.418 0 01-.21.715 2.99 2.99 0 01-.188.335.266.266 0 01-.078.076c-.136.05-.276.076-.422.076-.146 0-.323-.071-.531-.213a3.707 3.707 0 01-.648-.586 7.844 7.844 0 01-.758-1.041 18.054 18.054 0 01-.874-1.582l-.25-.441a37.68 37.68 0 01-.64-1.24c-.272-.543-.511-1.067-.72-1.574a1.006 1.006 0 00-.374-.487l-.078-.046a1.077 1.077 0 00-.25-.129 1.69 1.69 0 00-.36-.099l-4.28.03c-.436 0-.733.097-.89.29l-.062.09a.481.481 0 00-.047.244c0 .112.031.249.094.41A49.633 49.633 0 007.132 17.6c.734 1.328 1.372 2.398 1.913 3.209a37.872 37.872 0 001.656 2.296c.562.72.935 1.182 1.117 1.384a10 10 0 00.43.457l.39.365c.25.243.617.535 1.101.874.484.34 1.02.675 1.609 1.004.588.33 1.273.598 2.054.806a7.285 7.285 0 002.28.251h1.797c.364-.03.64-.142.828-.334l.062-.076a.994.994 0 00.117-.282c.037-.126.055-.266.055-.418-.011-.436.023-.829.101-1.178.078-.35.167-.614.266-.791.099-.178.211-.327.335-.449.125-.121.214-.195.267-.22a1.03 1.03 0 01.124-.054c.25-.08.544-.002.883.236.338.239.656.533.953.883.297.35.653.742 1.07 1.178.416.436.78.76 1.093.974l.312.182c.209.122.48.234.813.335.332.101.624.127.874.076l3.999-.06c.395 0 .703-.065.921-.191.219-.127.349-.266.39-.418.043-.152.045-.325.009-.518a1.877 1.877 0 00-.11-.403z" fill="#FD0"/></svg></svg>