<?xml version="1.0" standalone="no"?>
<!DOCTYPE svg PUBLIC "-//W3C//DTD SVG 20010904//EN"
 "http://www.w3.org/TR/2001/REC-SVG-20010904/DTD/svg10.dtd">
<svg version="1.0" xmlns="http://www.w3.org/2000/svg"
 width="120.000000pt" height="120.000000pt" viewBox="0 0 120.000000 120.000000"
 preserveAspectRatio="xMidYMid meet">
<metadata>
Created by potrace 1.14, written by Peter Selinger 2001-2017
</metadata>
<g transform="translate(0.000000,120.000000) scale(0.100000,-0.100000)"
fill="#000000" stroke="none">
<path d="M719 722 c-132 -133 -245 -242 -252 -242 -6 0 -58 45 -115 100 -123
120 -138 124 -201 55 -22 -24 -41 -53 -41 -62 0 -10 69 -85 155 -169 164 -161
191 -177 243 -150 46 24 582 571 582 594 0 20 -72 102 -90 102 -4 0 -16 3 -25
7 -13 4 -76 -53 -256 -235z m301 163 c18 -19 32 -37 29 -39 -339 -344 -545
-548 -559 -556 -10 -5 -28 -6 -39 -2 -21 7 -301 280 -301 292 0 10 62 60 75
60 6 0 51 -41 100 -91 100 -100 130 -121 160 -109 11 5 126 114 255 244 129
130 237 236 240 236 4 0 21 -16 40 -35z"/>
<path d="M807 701 c-119 -120 -163 -170 -152 -175 14 -5 55 29 55 46 0 5 4 7
9 4 11 -7 43 28 34 37 -3 4 0 7 8 7 8 0 33 19 55 43 23 23 73 73 113 110 66
63 80 86 55 94 -5 1 -84 -73 -177 -166z m-16 -44 c-10 -9 -11 -8 -5 6 3 10 9
15 12 12 3 -3 0 -11 -7 -18z m-51 -57 c0 -5 -6 -10 -12 -10 -7 0 -26 -14 -41
-32 l-29 -33 22 32 c11 18 29 37 38 43 22 12 22 12 22 0z"/>
<path d="M206 582 c-7 -11 11 -37 26 -37 7 0 13 -7 13 -15 0 -10 9 -14 28 -13
15 1 25 -2 22 -7 -4 -6 -1 -10 4 -10 19 0 12 19 -11 31 -13 7 -25 12 -28 11
-3 -1 -5 2 -5 6 0 9 -30 42 -39 42 -3 0 -7 -4 -10 -8z m22 -27 c-3 -3 -9 2
-12 12 -6 14 -5 15 5 6 7 -7 10 -15 7 -18z"/>
<path d="M625 510 c-11 -17 5 -32 21 -19 7 6 11 15 8 20 -7 12 -21 11 -29 -1z
m25 -4 c0 -3 -4 -8 -10 -11 -5 -3 -10 -1 -10 4 0 6 5 11 10 11 6 0 10 -2 10
-4z"/>
<path d="M600 495 c0 -5 5 -17 10 -25 5 -8 10 -10 10 -5 0 6 -5 17 -10 25 -5
8 -10 11 -10 5z"/>
<path d="M310 479 c0 -5 5 -7 12 -3 7 5 9 2 5 -8 -6 -17 16 -19 30 -3 4 4 3 5
-3 2 -7 -4 -14 0 -18 8 -6 17 -26 20 -26 4z"/>
<path d="M576 463 c-6 -14 -5 -15 5 -6 7 7 10 15 7 18 -3 3 -9 -2 -12 -12z"/>
<path d="M360 440 c-9 -6 -10 -10 -3 -10 6 0 15 5 18 10 8 12 4 12 -15 0z"/>
<path d="M547 427 c-3 -8 0 -14 7 -14 7 0 13 6 13 14 0 7 -4 13 -8 13 -4 0 -9
-6 -12 -13z"/>
<path d="M389 417 c6 -8 7 -18 3 -22 -4 -5 -1 -5 6 -1 10 6 10 11 1 22 -6 8
-14 14 -16 14 -3 0 0 -6 6 -13z"/>
</g>
</svg>
