<svg width="290" height="207" viewBox="0 0 290 207" fill="none" xmlns="http://www.w3.org/2000/svg">
<path d="M168.463 -48.7422L152.939 153.165L43.9508 89.9949L168.463 -48.7422Z" fill="#FFDD00"/>
<path d="M168.463 -48.7419L153.082 153.95L237.205 114.94L168.463 -48.7419Z" fill="#ECB300"/>
<path d="M43.3796 91.125L168.576 -49.4994" stroke="black" stroke-width="2.42842"/>
<path d="M237.638 116.104L168.576 -49.4992" stroke="black" stroke-width="2.42842"/>
<path d="M45.6395 31.988L160.834 46.0714L90.3511 116.886L45.6395 31.988Z" fill="white"/>
<path d="M90.8783 117.999L153.346 153.853L202.009 131.645L134.188 201.229L90.8783 117.999Z" fill="white"/>
<path d="M45.6395 31.9878L160.834 46.0712L104.505 22.9927L45.6395 31.9878Z" fill="#F2F2F2"/>
<path d="M161.744 46.3274L271.746 60.0504L203.136 130.662L161.744 46.3274Z" fill="white"/>
<path d="M161.744 46.3272L271.746 60.0502L205.825 36.6902L161.744 46.3272Z" fill="#F2F2F2"/>
<path d="M44.8204 32.0208L273.021 59.7521" stroke="black" stroke-width="2.42842"/>
<path d="M204.736 36.6974L273.021 59.7519" stroke="black" stroke-width="2.42842"/>
<path d="M204.736 36.6972L161.612 45.5512" stroke="black" stroke-width="2.42842"/>
<path d="M104.169 23.321L161.612 45.5516" stroke="black" stroke-width="2.42842"/>
<path d="M90.8375 117.187L161.612 45.5511" stroke="black" stroke-width="2.42842"/>
<path d="M202.706 130.619L161.612 45.5515" stroke="black" stroke-width="2.42842"/>
<path d="M44.8204 32.0208L103.933 22.941" stroke="black" stroke-width="2.42842"/>
<path d="M45.7417 32.6568L134.477 202.242" stroke="black" stroke-width="2.42842"/>
<path d="M272.009 60.1095L134.665 200.868" stroke="black" stroke-width="2.42842"/>
<path d="M44.8721 90.8843L152.507 153.6" stroke="black" stroke-width="2.42842"/>
<path d="M236.302 115.356L153.744 153.724" stroke="black" stroke-width="2.42842"/>
<path d="M153.088 154.714L168.879 -50.1918" stroke="black" stroke-width="2.42842"/>
</svg>
