<svg width="40" height="40" viewBox="0 0 40 40" fill="none" xmlns="http://www.w3.org/2000/svg">
<path fill-rule="evenodd" clip-rule="evenodd" d="M20 8C16.741 8 16.333 8.014 15.053 8.072C12.8748 8.17196 11.1802 8.82604 10.005 10H10V10.005C8.82711 11.1796 8.17289 12.8733 8.073 15.052C8.014 16.333 8 16.741 8 20C8 23.259 8.014 23.668 8.072 24.948C8.17196 27.1262 8.82604 28.8208 10 29.996V30H10.004C11.1786 31.1735 12.8727 31.8281 15.052 31.928C16.333 31.986 16.741 32 20 32C23.259 32 23.668 31.986 24.948 31.928C27.1242 31.828 28.8193 31.174 29.9951 30H30V29.9951C31.1736 28.8205 31.8286 27.1268 31.927 24.948C31.986 23.668 32 23.259 32 20C32 16.741 31.986 16.333 31.928 15.053C31.83 12.8755 31.1755 11.1803 30 10.0045V10H29.9955C28.8207 8.82755 27.1268 8.17285 24.949 8.073C23.668 8.014 23.259 8 20 8ZM24.9648 13.5953C24.9648 12.8003 25.6098 12.1553 26.4058 12.1553C27.2008 12.1553 27.8448 12.8003 27.8448 13.5953C27.8448 14.3903 27.2008 15.0353 26.4058 15.0353C25.6098 15.0353 24.9648 14.3903 24.9648 13.5953ZM20.0042 16C17.7912 16 16 17.793 16 20C16 22.207 17.7912 24 20.0042 24C22.2103 24 24 22.2097 24 20C24 17.7903 22.2103 16 20.0042 16ZM20.0042 14C16.6875 14 14 16.6875 14 20C14 23.3125 16.6875 26 20.0042 26C23.3167 26 26 23.3125 26 20C26 16.6875 23.3167 14 20.0042 14Z" fill="white"/>
</svg>
