<svg width="40" height="40" viewBox="0 0 40 40" fill="none" xmlns="http://www.w3.org/2000/svg">
<path d="M30.423 17.9172L30.3938 17.8426L27.567 10.4653C27.5095 10.3207 27.4076 10.198 27.2761 10.1149C27.1445 10.0332 26.9909 9.99386 26.8362 10.0022C26.6815 10.0105 26.5331 10.0661 26.411 10.1614C26.2902 10.2595 26.2026 10.3924 26.1601 10.5421L24.2514 16.3816H16.5227L14.614 10.5421C14.5726 10.3916 14.4848 10.258 14.3631 10.1603C14.241 10.065 14.0926 10.0094 13.9378 10.0011C13.7831 9.99278 13.6296 10.0321 13.498 10.1138C13.3667 10.1973 13.265 10.3199 13.2071 10.4642L10.3749 17.8383L10.3468 17.9129C9.93985 18.9761 9.88962 20.1429 10.2037 21.2371C10.5177 22.3314 11.179 23.2939 12.0878 23.9796L12.0976 23.9871L12.1235 24.0055L16.4297 27.2302L18.56 28.8426L19.8577 29.8224C20.0095 29.9376 20.1948 30 20.3854 30C20.576 30 20.7613 29.9376 20.9131 29.8224L22.2108 28.8426L24.3412 27.2302L28.6733 23.986L28.6841 23.9774C29.5909 23.2916 30.2506 22.3301 30.5642 21.2373C30.8778 20.1445 30.8282 18.9795 30.423 17.9172Z" fill="#fff"/>
</svg>
